<mxfile host="app.diagrams.net" agent="Mozilla/5.0 (Windows NT 10.0; Win64; x64) AppleWebKit/537.36 (KHTML, like Gecko) Chrome/131.0.0.0 Safari/537.36" version="26.0.4">
  <diagram id="codeviz-diagram" name="System Diagram">
    <mxGraphModel dx="1434" dy="746" grid="1" gridSize="10" guides="1" tooltips="1" connect="1" arrows="1" fold="1" page="1" pageScale="1" pageWidth="1169" pageHeight="827" background="none" math="0" shadow="1">
      <root>
        <mxCell id="0" />
        <mxCell id="1" parent="0" />
        <mxCell id="Infrastructure" value="" style="html=1;whiteSpace=wrap;container=1;fillColor=#dae8fc;strokeColor=#6c8ebf;dashed=1;fillOpacity=20;strokeWidth=2;containerType=none;recursiveResize=0;movable=1;resizable=1;autosize=0;dropTarget=0" parent="1" vertex="1">
          <mxGeometry x="488" y="1397" width="380" height="220" as="geometry" />
        </mxCell>
        <mxCell id="RabbitMQ" value="Message Broker&lt;br&gt;(RabbitMQ)" style="rounded=1;whiteSpace=wrap;html=1;fillColor=#f5f5f5" parent="Infrastructure" vertex="1">
          <mxGeometry x="180" y="120" width="120" height="60" as="geometry" />
        </mxCell>
        <mxCell id="Redis" value="Redis Cache&lt;br&gt;(Redis)" style="rounded=1;whiteSpace=wrap;html=1;fillColor=#f5f5f5" parent="Infrastructure" vertex="1">
          <mxGeometry x="40" y="120" width="120" height="60" as="geometry" />
        </mxCell>
        <mxCell id="Infrastructure_label" value="Infrastructure" style="edgeLabel;html=1;align=center;verticalAlign=middle;resizable=0;labelBackgroundColor=white;spacing=5" parent="1" vertex="1">
          <mxGeometry x="496" y="1405" width="304" height="24" as="geometry" />
        </mxCell>
        <mxCell id="subGraph0" value="" style="html=1;whiteSpace=wrap;container=1;fillColor=#dae8fc;strokeColor=#6c8ebf;dashed=1;fillOpacity=20;strokeWidth=2;containerType=none;recursiveResize=0;movable=1;resizable=1;autosize=0;dropTarget=0" parent="1" vertex="1">
          <mxGeometry x="659" y="187" width="240" height="220" as="geometry" />
        </mxCell>
        <mxCell id="APIGateway" value="API Gateway&lt;br&gt;(LocalStack)" style="rounded=1;whiteSpace=wrap;html=1;fillColor=#f5f5f5" parent="subGraph0" vertex="1">
          <mxGeometry x="40" y="120" width="120" height="60" as="geometry" />
        </mxCell>
        <mxCell id="subGraph0_label" value="API Gateway" style="edgeLabel;html=1;align=center;verticalAlign=middle;resizable=0;labelBackgroundColor=white;spacing=5" parent="1" vertex="1">
          <mxGeometry x="667" y="195" width="164" height="24" as="geometry" />
        </mxCell>
        <mxCell id="subGraph2" value="" style="html=1;whiteSpace=wrap;container=1;fillColor=#dae8fc;strokeColor=#6c8ebf;dashed=1;fillOpacity=20;strokeWidth=2;containerType=none;recursiveResize=0;movable=1;resizable=1;autosize=0;dropTarget=0" parent="1" vertex="1">
          <mxGeometry x="32" y="477" width="440" height="605" as="geometry" />
        </mxCell>
        <mxCell id="subGraph1" value="" style="html=1;whiteSpace=wrap;container=1;fillColor=#dae8fc;strokeColor=#6c8ebf;dashed=1;fillOpacity=20;strokeWidth=2;containerType=none;recursiveResize=0;movable=1;resizable=1;autosize=0;dropTarget=0" parent="subGraph2" vertex="1">
          <mxGeometry x="50" y="205" width="380" height="380" as="geometry" />
        </mxCell>
        <mxCell id="AuthController" value="Auth Controller&lt;br&gt;(TypeScript)" style="rounded=1;whiteSpace=wrap;html=1;fillColor=#f5f5f5" parent="subGraph1" vertex="1">
          <mxGeometry x="60" y="120" width="120" height="60" as="geometry" />
        </mxCell>
        <mxCell id="AuthRoutes" value="Auth Routes&lt;br&gt;(Express)" style="rounded=1;whiteSpace=wrap;html=1;fillColor=#f5f5f5" parent="subGraph1" vertex="1">
          <mxGeometry x="40" y="200" width="120" height="60" as="geometry" />
        </mxCell>
        <mxCell id="AuthServiceComponent" value="Auth Service Component&lt;br&gt;(TypeScript)" style="rounded=1;whiteSpace=wrap;html=1;fillColor=#f5f5f5" parent="subGraph1" vertex="1">
          <mxGeometry x="180" y="200" width="120" height="60" as="geometry" />
        </mxCell>
        <mxCell id="UserModel" value="User Model&lt;br&gt;(TypeScript)" style="rounded=1;whiteSpace=wrap;html=1;fillColor=#f5f5f5" parent="subGraph1" vertex="1">
          <mxGeometry x="160" y="280" width="120" height="60" as="geometry" />
        </mxCell>
        <mxCell id="subGraph1_label" value="Auth Components" style="edgeLabel;html=1;align=center;verticalAlign=middle;resizable=0;labelBackgroundColor=white;spacing=5" parent="subGraph2" vertex="1">
          <mxGeometry x="58" y="213" width="304" height="24" as="geometry" />
        </mxCell>
        <mxCell id="AuthService" value="Auth Service&lt;br&gt;(Node.js)" style="rounded=1;whiteSpace=wrap;html=1;fillColor=#f5f5f5" parent="subGraph2" vertex="1">
          <mxGeometry x="140" y="120" width="120" height="60" as="geometry" />
        </mxCell>
        <mxCell id="subGraph2_label" value="Authentication Service" style="edgeLabel;html=1;align=center;verticalAlign=middle;resizable=0;labelBackgroundColor=white;spacing=5" parent="1" vertex="1">
          <mxGeometry x="40" y="485" width="364" height="24" as="geometry" />
        </mxCell>
        <mxCell id="subGraph4" value="" style="html=1;whiteSpace=wrap;container=1;fillColor=#dae8fc;strokeColor=#6c8ebf;dashed=1;fillOpacity=20;strokeWidth=2;containerType=none;recursiveResize=0;movable=1;resizable=1;autosize=0;dropTarget=0" parent="1" vertex="1">
          <mxGeometry x="570" y="477" width="480" height="605" as="geometry" />
        </mxCell>
        <mxCell id="subGraph3" value="" style="html=1;whiteSpace=wrap;container=1;fillColor=#dae8fc;strokeColor=#6c8ebf;dashed=1;fillOpacity=20;strokeWidth=2;containerType=none;recursiveResize=0;movable=1;resizable=1;autosize=0;dropTarget=0" parent="subGraph4" vertex="1">
          <mxGeometry x="94" y="205" width="420" height="380" as="geometry" />
        </mxCell>
        <mxCell id="GameSessionConsumer" value="Session Consumer&lt;br&gt;(RabbitMQ)" style="rounded=1;whiteSpace=wrap;html=1;fillColor=#f5f5f5" parent="subGraph3" vertex="1">
          <mxGeometry x="220" y="120" width="120" height="60" as="geometry" />
        </mxCell>
        <mxCell id="GameSessionController" value="Session Controller&lt;br&gt;(TypeScript)" style="rounded=1;whiteSpace=wrap;html=1;fillColor=#f5f5f5" parent="subGraph3" vertex="1">
          <mxGeometry x="60" y="120" width="120" height="60" as="geometry" />
        </mxCell>
        <mxCell id="GameSessionModel" value="Session Model&lt;br&gt;(TypeScript)" style="rounded=1;whiteSpace=wrap;html=1;fillColor=#f5f5f5" parent="subGraph3" vertex="1">
          <mxGeometry x="180" y="280" width="120" height="60" as="geometry" />
        </mxCell>
        <mxCell id="GameSessionRoutes" value="Session Routes&lt;br&gt;(Express)" style="rounded=1;whiteSpace=wrap;html=1;fillColor=#f5f5f5" parent="subGraph3" vertex="1">
          <mxGeometry x="40" y="200" width="120" height="60" as="geometry" />
        </mxCell>
        <mxCell id="GameSessionServiceComponent" value="Session Service&lt;br&gt;(TypeScript)" style="rounded=1;whiteSpace=wrap;html=1;fillColor=#f5f5f5" parent="subGraph3" vertex="1">
          <mxGeometry x="180" y="200" width="120" height="60" as="geometry" />
        </mxCell>
        <mxCell id="subGraph3_label" value="Game Session Components" style="edgeLabel;html=1;align=center;verticalAlign=middle;resizable=0;labelBackgroundColor=white;spacing=5" parent="subGraph4" vertex="1">
          <mxGeometry x="102" y="213" width="344" height="24" as="geometry" />
        </mxCell>
        <mxCell id="GameSessionService" value="Game Session Service&lt;br&gt;(Node.js)" style="rounded=1;whiteSpace=wrap;html=1;fillColor=#f5f5f5" parent="subGraph4" vertex="1">
          <mxGeometry x="104" y="120" width="120" height="60" as="geometry" />
        </mxCell>
        <mxCell id="subGraph4_label" value="Game Session Service" style="edgeLabel;html=1;align=center;verticalAlign=middle;resizable=0;labelBackgroundColor=white;spacing=5" parent="1" vertex="1">
          <mxGeometry x="578" y="485" width="404" height="24" as="geometry" />
        </mxCell>
        <mxCell id="subGraph6" value="" style="html=1;whiteSpace=wrap;container=1;fillColor=#dae8fc;strokeColor=#6c8ebf;dashed=1;fillOpacity=20;strokeWidth=2;containerType=none;recursiveResize=0;movable=1;resizable=1;autosize=0;dropTarget=0" parent="1" vertex="1">
          <mxGeometry x="1050" y="498.42857142857144" width="603" height="575" as="geometry" />
        </mxCell>
        <mxCell id="subGraph5" value="" style="html=1;whiteSpace=wrap;container=1;fillColor=#dae8fc;strokeColor=#6c8ebf;dashed=1;fillOpacity=20;strokeWidth=2;containerType=none;recursiveResize=0;movable=1;resizable=1;autosize=0;dropTarget=0" parent="subGraph6" vertex="1">
          <mxGeometry x="132" y="175" width="451" height="380" as="geometry" />
        </mxCell>
        <mxCell id="MatchController" value="Matchmaking Controller&lt;br&gt;(TypeScript)" style="rounded=1;whiteSpace=wrap;html=1;fillColor=#f5f5f5" parent="subGraph5" vertex="1">
          <mxGeometry x="160" y="120" width="120" height="60" as="geometry" />
        </mxCell>
        <mxCell id="MatchRoutes" value="Matchmaking Routes&lt;br&gt;(Express)" style="rounded=1;whiteSpace=wrap;html=1;fillColor=#f5f5f5" parent="subGraph5" vertex="1">
          <mxGeometry x="40" y="200" width="120" height="60" as="geometry" />
        </mxCell>
        <mxCell id="MatchServiceComponent" value="Matchmaking Service&lt;br&gt;(TypeScript)" style="rounded=1;whiteSpace=wrap;html=1;fillColor=#f5f5f5" parent="subGraph5" vertex="1">
          <mxGeometry x="180" y="200" width="120" height="60" as="geometry" />
        </mxCell>
        <mxCell id="PlayerModel" value="Player Model&lt;br&gt;(TypeScript)" style="rounded=1;whiteSpace=wrap;html=1;fillColor=#f5f5f5" parent="subGraph5" vertex="1">
          <mxGeometry x="110" y="280" width="120" height="60" as="geometry" />
        </mxCell>
        <mxCell id="WebSocketServer" value="WebSocket Server&lt;br&gt;(ws)" style="rounded=1;whiteSpace=wrap;html=1;fillColor=#f5f5f5" parent="subGraph5" vertex="1">
          <mxGeometry x="251" y="280" width="120" height="60" as="geometry" />
        </mxCell>
        <mxCell id="subGraph5_label" value="Matchmaking Components" style="edgeLabel;html=1;align=center;verticalAlign=middle;resizable=0;labelBackgroundColor=white;spacing=5" parent="subGraph6" vertex="1">
          <mxGeometry x="140" y="183" width="375" height="24" as="geometry" />
        </mxCell>
        <mxCell id="MatchmakingService" value="Matchmaking Service&lt;br&gt;(Node.js)" style="rounded=1;whiteSpace=wrap;html=1;fillColor=#f5f5f5" parent="subGraph6" vertex="1">
          <mxGeometry x="40" y="120" width="120" height="60" as="geometry" />
        </mxCell>
        <mxCell id="subGraph6_label" value="Matchmaking Service" style="edgeLabel;html=1;align=center;verticalAlign=middle;resizable=0;labelBackgroundColor=white;spacing=5" parent="1" vertex="1">
          <mxGeometry x="1058" y="506.42857142857144" width="527" height="24" as="geometry" />
        </mxCell>
        <mxCell id="subGraph7" value="" style="html=1;whiteSpace=wrap;container=1;fillColor=#dae8fc;strokeColor=#6c8ebf;dashed=1;fillOpacity=20;strokeWidth=2;containerType=none;recursiveResize=0;movable=1;resizable=1;autosize=0;dropTarget=0" parent="1" vertex="1">
          <mxGeometry x="368" y="1157" width="660" height="220" as="geometry" />
        </mxCell>
        <mxCell id="AuthMiddleware" value="Auth Middleware&lt;br&gt;(TypeScript)" style="rounded=1;whiteSpace=wrap;html=1;fillColor=#f5f5f5" parent="subGraph7" vertex="1">
          <mxGeometry x="320" y="120" width="120" height="60" as="geometry" />
        </mxCell>
        <mxCell id="Logger" value="Logger&lt;br&gt;(TypeScript)" style="rounded=1;whiteSpace=wrap;html=1;fillColor=#f5f5f5" parent="subGraph7" vertex="1">
          <mxGeometry x="40" y="120" width="120" height="60" as="geometry" />
        </mxCell>
        <mxCell id="MessagingUtil" value="Messaging Utility&lt;br&gt;(RabbitMQ)" style="rounded=1;whiteSpace=wrap;html=1;fillColor=#f5f5f5" parent="subGraph7" vertex="1">
          <mxGeometry x="460" y="120" width="120" height="60" as="geometry" />
        </mxCell>
        <mxCell id="SessionService" value="Session Service&lt;br&gt;(TypeScript)" style="rounded=1;whiteSpace=wrap;html=1;fillColor=#f5f5f5" parent="subGraph7" vertex="1">
          <mxGeometry x="180" y="120" width="120" height="60" as="geometry" />
        </mxCell>
        <mxCell id="subGraph7_label" value="Shared Components" style="edgeLabel;html=1;align=center;verticalAlign=middle;resizable=0;labelBackgroundColor=white;spacing=5" parent="1" vertex="1">
          <mxGeometry x="376" y="1165" width="584" height="24" as="geometry" />
        </mxCell>
        <mxCell id="Client" value="Game Client" style="rounded=1;whiteSpace=wrap;html=1;fillColor=#f5f5f5" parent="1" vertex="1">
          <mxGeometry x="1433" y="297" width="120" height="60" as="geometry" />
        </mxCell>
        <mxCell id="User" value="External User" style="rounded=1;whiteSpace=wrap;html=1;fillColor=#f5f5f5" parent="1" vertex="1">
          <mxGeometry x="689" y="12" width="120" height="60" as="geometry" />
        </mxCell>
        <mxCell id="edge-L_APIGateway_AuthService_2" style="edgeStyle=orthogonalEdgeStyle;rounded=1;orthogonalLoop=1;jettySize=auto;html=1;strokeColor=#808080;strokeWidth=2;jumpStyle=arc;jumpSize=10;spacing=15;labelBackgroundColor=white;labelBorderColor=none" parent="1" source="APIGateway" target="AuthService" edge="1">
          <mxGeometry relative="1" as="geometry" />
        </mxCell>
        <mxCell id="edge-L_APIGateway_AuthService_2_label" value="/auth/*" style="edgeLabel;html=1;align=center;verticalAlign=middle;resizable=0;points=[];" parent="edge-L_APIGateway_AuthService_2" vertex="1" connectable="0">
          <mxGeometry x="-0.2" y="10" relative="1" as="geometry">
            <mxPoint as="offset" />
          </mxGeometry>
        </mxCell>
        <mxCell id="edge-L_APIGateway_GameSessionService_3" style="edgeStyle=orthogonalEdgeStyle;rounded=1;orthogonalLoop=1;jettySize=auto;html=1;strokeColor=#808080;strokeWidth=2;jumpStyle=arc;jumpSize=10;spacing=15;labelBackgroundColor=white;labelBorderColor=none" parent="1" source="APIGateway" target="GameSessionService" edge="1">
          <mxGeometry relative="1" as="geometry" />
        </mxCell>
        <mxCell id="edge-L_APIGateway_GameSessionService_3_label" value="/game-session/*" style="edgeLabel;html=1;align=center;verticalAlign=middle;resizable=0;points=[];" parent="edge-L_APIGateway_GameSessionService_3" vertex="1" connectable="0">
          <mxGeometry x="-0.2" y="10" relative="1" as="geometry">
            <mxPoint as="offset" />
          </mxGeometry>
        </mxCell>
        <mxCell id="edge-L_APIGateway_MatchmakingService_4" style="edgeStyle=orthogonalEdgeStyle;rounded=1;orthogonalLoop=1;jettySize=auto;html=1;strokeColor=#808080;strokeWidth=2;jumpStyle=arc;jumpSize=10;spacing=15;labelBackgroundColor=white;labelBorderColor=none" parent="1" source="APIGateway" target="MatchmakingService" edge="1">
          <mxGeometry relative="1" as="geometry" />
        </mxCell>
        <mxCell id="edge-L_APIGateway_MatchmakingService_4_label" value="/matchmaking/*" style="edgeLabel;html=1;align=center;verticalAlign=middle;resizable=0;points=[];" parent="edge-L_APIGateway_MatchmakingService_4" vertex="1" connectable="0">
          <mxGeometry x="-0.2" y="10" relative="1" as="geometry">
            <mxPoint as="offset" />
          </mxGeometry>
        </mxCell>
        <mxCell id="edge-L_AuthController_AuthRoutes_7" style="edgeStyle=orthogonalEdgeStyle;rounded=1;orthogonalLoop=1;jettySize=auto;html=1;strokeColor=#808080;strokeWidth=2;jumpStyle=arc;jumpSize=10;spacing=15;labelBackgroundColor=white;labelBorderColor=none" parent="1" source="AuthController" target="AuthRoutes" edge="1">
          <mxGeometry relative="1" as="geometry" />
        </mxCell>
        <mxCell id="edge-L_AuthController_AuthServiceComponent_6" style="edgeStyle=orthogonalEdgeStyle;rounded=1;orthogonalLoop=1;jettySize=auto;html=1;strokeColor=#808080;strokeWidth=2;jumpStyle=arc;jumpSize=10;spacing=15;labelBackgroundColor=white;labelBorderColor=none" parent="1" source="AuthController" target="AuthServiceComponent" edge="1">
          <mxGeometry relative="1" as="geometry" />
        </mxCell>
        <mxCell id="edge-L_AuthService_AuthController_5" style="edgeStyle=orthogonalEdgeStyle;rounded=1;orthogonalLoop=1;jettySize=auto;html=1;strokeColor=#808080;strokeWidth=2;jumpStyle=arc;jumpSize=10;spacing=15;labelBackgroundColor=white;labelBorderColor=none" parent="1" source="AuthService" target="AuthController" edge="1">
          <mxGeometry relative="1" as="geometry" />
        </mxCell>
        <mxCell id="edge-L_AuthService_AuthMiddleware_22" style="edgeStyle=orthogonalEdgeStyle;rounded=1;orthogonalLoop=1;jettySize=auto;html=1;strokeColor=#808080;strokeWidth=2;jumpStyle=arc;jumpSize=10;spacing=15;labelBackgroundColor=white;labelBorderColor=none" parent="1" source="AuthService" target="AuthMiddleware" edge="1">
          <mxGeometry relative="1" as="geometry" />
        </mxCell>
        <mxCell id="edge-L_AuthService_Logger_31" style="edgeStyle=orthogonalEdgeStyle;rounded=1;orthogonalLoop=1;jettySize=auto;html=1;strokeColor=#808080;strokeWidth=2;jumpStyle=arc;jumpSize=10;spacing=15;labelBackgroundColor=white;labelBorderColor=none" parent="1" source="AuthService" target="Logger" edge="1">
          <mxGeometry relative="1" as="geometry" />
        </mxCell>
        <mxCell id="edge-L_AuthService_MessagingUtil_28" style="edgeStyle=orthogonalEdgeStyle;rounded=1;orthogonalLoop=1;jettySize=auto;html=1;strokeColor=#808080;strokeWidth=2;jumpStyle=arc;jumpSize=10;spacing=15;labelBackgroundColor=white;labelBorderColor=none" parent="1" source="AuthService" target="MessagingUtil" edge="1">
          <mxGeometry relative="1" as="geometry" />
        </mxCell>
        <mxCell id="edge-L_AuthService_SessionService_25" style="edgeStyle=orthogonalEdgeStyle;rounded=1;orthogonalLoop=1;jettySize=auto;html=1;strokeColor=#808080;strokeWidth=2;jumpStyle=arc;jumpSize=10;spacing=15;labelBackgroundColor=white;labelBorderColor=none" parent="1" source="AuthService" target="SessionService" edge="1">
          <mxGeometry relative="1" as="geometry" />
        </mxCell>
        <mxCell id="edge-L_AuthServiceComponent_Redis_9" style="edgeStyle=orthogonalEdgeStyle;rounded=1;orthogonalLoop=1;jettySize=auto;html=1;strokeColor=#808080;strokeWidth=2;jumpStyle=arc;jumpSize=10;spacing=15;labelBackgroundColor=white;labelBorderColor=none" parent="1" source="AuthServiceComponent" target="Redis" edge="1">
          <mxGeometry relative="1" as="geometry" />
        </mxCell>
        <mxCell id="edge-L_AuthServiceComponent_UserModel_8" style="edgeStyle=orthogonalEdgeStyle;rounded=1;orthogonalLoop=1;jettySize=auto;html=1;strokeColor=#808080;strokeWidth=2;jumpStyle=arc;jumpSize=10;spacing=15;labelBackgroundColor=white;labelBorderColor=none" parent="1" source="AuthServiceComponent" target="UserModel" edge="1">
          <mxGeometry relative="1" as="geometry" />
        </mxCell>
        <mxCell id="edge-L_Client_WebSocketServer_1" style="edgeStyle=orthogonalEdgeStyle;rounded=1;orthogonalLoop=1;jettySize=auto;html=1;strokeColor=#808080;strokeWidth=2;jumpStyle=arc;jumpSize=10;spacing=15;labelBackgroundColor=white;labelBorderColor=none" parent="1" source="Client" target="WebSocketServer" edge="1">
          <mxGeometry relative="1" as="geometry" />
        </mxCell>
        <mxCell id="edge-L_Client_WebSocketServer_1_label" value="WebSocket" style="edgeLabel;html=1;align=center;verticalAlign=middle;resizable=0;points=[];" parent="edge-L_Client_WebSocketServer_1" vertex="1" connectable="0">
          <mxGeometry x="-0.2" y="10" relative="1" as="geometry">
            <mxPoint as="offset" />
          </mxGeometry>
        </mxCell>
        <mxCell id="edge-L_GameSessionConsumer_GameSessionServiceComponent_14" style="edgeStyle=orthogonalEdgeStyle;rounded=1;orthogonalLoop=1;jettySize=auto;html=1;strokeColor=#808080;strokeWidth=2;jumpStyle=arc;jumpSize=10;spacing=15;labelBackgroundColor=white;labelBorderColor=none" parent="1" source="GameSessionConsumer" target="GameSessionServiceComponent" edge="1">
          <mxGeometry relative="1" as="geometry" />
        </mxCell>
        <mxCell id="edge-L_GameSessionConsumer_RabbitMQ_15" style="edgeStyle=orthogonalEdgeStyle;rounded=1;orthogonalLoop=1;jettySize=auto;html=1;strokeColor=#808080;strokeWidth=2;jumpStyle=arc;jumpSize=10;spacing=15;labelBackgroundColor=white;labelBorderColor=none" parent="1" source="GameSessionConsumer" target="RabbitMQ" edge="1">
          <mxGeometry relative="1" as="geometry" />
        </mxCell>
        <mxCell id="edge-L_GameSessionController_GameSessionRoutes_12" style="edgeStyle=orthogonalEdgeStyle;rounded=1;orthogonalLoop=1;jettySize=auto;html=1;strokeColor=#808080;strokeWidth=2;jumpStyle=arc;jumpSize=10;spacing=15;labelBackgroundColor=white;labelBorderColor=none" parent="1" source="GameSessionController" target="GameSessionRoutes" edge="1">
          <mxGeometry relative="1" as="geometry" />
        </mxCell>
        <mxCell id="edge-L_GameSessionController_GameSessionServiceComponent_11" style="edgeStyle=orthogonalEdgeStyle;rounded=1;orthogonalLoop=1;jettySize=auto;html=1;strokeColor=#808080;strokeWidth=2;jumpStyle=arc;jumpSize=10;spacing=15;labelBackgroundColor=white;labelBorderColor=none" parent="1" source="GameSessionController" target="GameSessionServiceComponent" edge="1">
          <mxGeometry relative="1" as="geometry" />
        </mxCell>
        <mxCell id="edge-L_GameSessionService_AuthMiddleware_23" style="edgeStyle=orthogonalEdgeStyle;rounded=1;orthogonalLoop=1;jettySize=auto;html=1;strokeColor=#808080;strokeWidth=2;jumpStyle=arc;jumpSize=10;spacing=15;labelBackgroundColor=white;labelBorderColor=none" parent="1" source="GameSessionService" target="AuthMiddleware" edge="1">
          <mxGeometry relative="1" as="geometry" />
        </mxCell>
        <mxCell id="edge-L_GameSessionService_GameSessionController_10" style="edgeStyle=orthogonalEdgeStyle;rounded=1;orthogonalLoop=1;jettySize=auto;html=1;strokeColor=#808080;strokeWidth=2;jumpStyle=arc;jumpSize=10;spacing=15;labelBackgroundColor=white;labelBorderColor=none" parent="1" source="GameSessionService" target="GameSessionController" edge="1">
          <mxGeometry relative="1" as="geometry" />
        </mxCell>
        <mxCell id="edge-L_GameSessionService_Logger_32" style="edgeStyle=orthogonalEdgeStyle;rounded=1;orthogonalLoop=1;jettySize=auto;html=1;strokeColor=#808080;strokeWidth=2;jumpStyle=arc;jumpSize=10;spacing=15;labelBackgroundColor=white;labelBorderColor=none" parent="1" source="GameSessionService" target="Logger" edge="1">
          <mxGeometry relative="1" as="geometry" />
        </mxCell>
        <mxCell id="edge-L_GameSessionService_MessagingUtil_29" style="edgeStyle=orthogonalEdgeStyle;rounded=1;orthogonalLoop=1;jettySize=auto;html=1;strokeColor=#808080;strokeWidth=2;jumpStyle=arc;jumpSize=10;spacing=15;labelBackgroundColor=white;labelBorderColor=none" parent="1" source="GameSessionService" target="MessagingUtil" edge="1">
          <mxGeometry relative="1" as="geometry" />
        </mxCell>
        <mxCell id="edge-L_GameSessionService_SessionService_26" style="edgeStyle=orthogonalEdgeStyle;rounded=1;orthogonalLoop=1;jettySize=auto;html=1;strokeColor=#808080;strokeWidth=2;jumpStyle=arc;jumpSize=10;spacing=15;labelBackgroundColor=white;labelBorderColor=none" parent="1" source="GameSessionService" target="SessionService" edge="1">
          <mxGeometry relative="1" as="geometry" />
        </mxCell>
        <mxCell id="edge-L_GameSessionServiceComponent_GameSessionModel_13" style="edgeStyle=orthogonalEdgeStyle;rounded=1;orthogonalLoop=1;jettySize=auto;html=1;strokeColor=#808080;strokeWidth=2;jumpStyle=arc;jumpSize=10;spacing=15;labelBackgroundColor=white;labelBorderColor=none" parent="1" source="GameSessionServiceComponent" target="GameSessionModel" edge="1">
          <mxGeometry relative="1" as="geometry" />
        </mxCell>
        <mxCell id="edge-L_MatchController_MatchRoutes_18" style="edgeStyle=orthogonalEdgeStyle;rounded=1;orthogonalLoop=1;jettySize=auto;html=1;strokeColor=#808080;strokeWidth=2;jumpStyle=arc;jumpSize=10;spacing=15;labelBackgroundColor=white;labelBorderColor=none" parent="1" source="MatchController" target="MatchRoutes" edge="1">
          <mxGeometry relative="1" as="geometry" />
        </mxCell>
        <mxCell id="edge-L_MatchController_MatchServiceComponent_17" style="edgeStyle=orthogonalEdgeStyle;rounded=1;orthogonalLoop=1;jettySize=auto;html=1;strokeColor=#808080;strokeWidth=2;jumpStyle=arc;jumpSize=10;spacing=15;labelBackgroundColor=white;labelBorderColor=none" parent="1" source="MatchController" target="MatchServiceComponent" edge="1">
          <mxGeometry relative="1" as="geometry" />
        </mxCell>
        <mxCell id="edge-L_MatchmakingService_AuthMiddleware_24" style="edgeStyle=orthogonalEdgeStyle;rounded=1;orthogonalLoop=1;jettySize=auto;html=1;strokeColor=#808080;strokeWidth=2;jumpStyle=arc;jumpSize=10;spacing=15;labelBackgroundColor=white;labelBorderColor=none" parent="1" source="MatchmakingService" target="AuthMiddleware" edge="1">
          <mxGeometry relative="1" as="geometry" />
        </mxCell>
        <mxCell id="edge-L_MatchmakingService_Logger_33" style="edgeStyle=orthogonalEdgeStyle;rounded=1;orthogonalLoop=1;jettySize=auto;html=1;strokeColor=#808080;strokeWidth=2;jumpStyle=arc;jumpSize=10;spacing=15;labelBackgroundColor=white;labelBorderColor=none" parent="1" source="MatchmakingService" target="Logger" edge="1">
          <mxGeometry relative="1" as="geometry" />
        </mxCell>
        <mxCell id="edge-L_MatchmakingService_MatchController_16" style="edgeStyle=orthogonalEdgeStyle;rounded=1;orthogonalLoop=1;jettySize=auto;html=1;strokeColor=#808080;strokeWidth=2;jumpStyle=arc;jumpSize=10;spacing=15;labelBackgroundColor=white;labelBorderColor=none" parent="1" source="MatchmakingService" target="MatchController" edge="1">
          <mxGeometry relative="1" as="geometry" />
        </mxCell>
        <mxCell id="edge-L_MatchmakingService_MessagingUtil_30" style="edgeStyle=orthogonalEdgeStyle;rounded=1;orthogonalLoop=1;jettySize=auto;html=1;strokeColor=#808080;strokeWidth=2;jumpStyle=arc;jumpSize=10;spacing=15;labelBackgroundColor=white;labelBorderColor=none" parent="1" source="MatchmakingService" target="MessagingUtil" edge="1">
          <mxGeometry relative="1" as="geometry" />
        </mxCell>
        <mxCell id="edge-L_MatchmakingService_SessionService_27" style="edgeStyle=orthogonalEdgeStyle;rounded=1;orthogonalLoop=1;jettySize=auto;html=1;strokeColor=#808080;strokeWidth=2;jumpStyle=arc;jumpSize=10;spacing=15;labelBackgroundColor=white;labelBorderColor=none" parent="1" source="MatchmakingService" target="SessionService" edge="1">
          <mxGeometry relative="1" as="geometry" />
        </mxCell>
        <mxCell id="edge-L_MatchServiceComponent_PlayerModel_19" style="edgeStyle=orthogonalEdgeStyle;rounded=1;orthogonalLoop=1;jettySize=auto;html=1;strokeColor=#808080;strokeWidth=2;jumpStyle=arc;jumpSize=10;spacing=15;labelBackgroundColor=white;labelBorderColor=none" parent="1" source="MatchServiceComponent" target="PlayerModel" edge="1">
          <mxGeometry relative="1" as="geometry" />
        </mxCell>
        <mxCell id="edge-L_MatchServiceComponent_RabbitMQ_21" style="edgeStyle=orthogonalEdgeStyle;rounded=1;orthogonalLoop=1;jettySize=auto;html=1;strokeColor=#808080;strokeWidth=2;jumpStyle=arc;jumpSize=10;spacing=15;labelBackgroundColor=white;labelBorderColor=none" parent="1" source="MatchServiceComponent" target="RabbitMQ" edge="1">
          <mxGeometry relative="1" as="geometry" />
        </mxCell>
        <mxCell id="edge-L_MatchServiceComponent_WebSocketServer_20" style="edgeStyle=orthogonalEdgeStyle;rounded=1;orthogonalLoop=1;jettySize=auto;html=1;strokeColor=#808080;strokeWidth=2;jumpStyle=arc;jumpSize=10;spacing=15;labelBackgroundColor=white;labelBorderColor=none" parent="1" source="MatchServiceComponent" target="WebSocketServer" edge="1">
          <mxGeometry relative="1" as="geometry" />
        </mxCell>
        <mxCell id="edge-L_MessagingUtil_RabbitMQ_34" style="edgeStyle=orthogonalEdgeStyle;rounded=1;orthogonalLoop=1;jettySize=auto;html=1;strokeColor=#808080;strokeWidth=2;jumpStyle=arc;jumpSize=10;spacing=15;labelBackgroundColor=white;labelBorderColor=none" parent="1" source="MessagingUtil" target="RabbitMQ" edge="1">
          <mxGeometry relative="1" as="geometry" />
        </mxCell>
        <mxCell id="edge-L_SessionService_Redis_35" style="edgeStyle=orthogonalEdgeStyle;rounded=1;orthogonalLoop=1;jettySize=auto;html=1;strokeColor=#808080;strokeWidth=2;jumpStyle=arc;jumpSize=10;spacing=15;labelBackgroundColor=white;labelBorderColor=none" parent="1" source="SessionService" target="Redis" edge="1">
          <mxGeometry relative="1" as="geometry" />
        </mxCell>
        <mxCell id="edge-L_User_APIGateway_0" style="edgeStyle=orthogonalEdgeStyle;rounded=1;orthogonalLoop=1;jettySize=auto;html=1;strokeColor=#808080;strokeWidth=2;jumpStyle=arc;jumpSize=10;spacing=15;labelBackgroundColor=white;labelBorderColor=none" parent="1" source="User" target="APIGateway" edge="1">
          <mxGeometry relative="1" as="geometry" />
        </mxCell>
        <mxCell id="edge-L_User_APIGateway_0_label" value="HTTP/HTTPS" style="edgeLabel;html=1;align=center;verticalAlign=middle;resizable=0;points=[];" parent="edge-L_User_APIGateway_0" vertex="1" connectable="0">
          <mxGeometry x="-0.2" y="10" relative="1" as="geometry">
            <mxPoint as="offset" />
          </mxGeometry>
        </mxCell>
      </root>
    </mxGraphModel>
  </diagram>
</mxfile>
